<svg xmlns="http://www.w3.org/2000/svg" width="1440" height="132" viewBox="0 0 1440 132">
    <g fill="none" fill-rule="evenodd">
        <g>
            <g>
                <g>
                    <path stroke="#FFF" d="M1301.547 129.035L1301.547 112.534 1298 112.534 1298 108.217 1319.59 108.217 1319.59 103.744 1340.409 103.744 1340.409 108.371 1362.153 108.371 1362.153 112.843 1358.915 112.843 1358.915 129.035 1376.218 129.035 1376.218 90.79 1385.317 90.79 1385.317 83.542 1392.565 83.542 1392.565 82 1394.108 82 1394.108 83.542 1399.967 83.542 1399.967 90.327 1409.529 90.327 1409.529 83.85 1416.315 83.85 1416.315 82 1417.857 82 1417.857 84.005 1423.871 84.005 1423.871 90.636 1432.507 90.636 1432.507 129.035 1443.062 129.035M0 128.896L45.04 128.896 45.04 112.395 41.493 112.395 41.493 108.078 63.083 108.078 63.083 103.605 83.902 103.605 83.902 108.232 105.646 108.232 105.646 112.704 102.408 112.704 102.408 128.896 119.711 128.896 119.711 90.651 128.81 90.651 128.81 83.403 136.058 83.403 136.058 81.861 137.601 81.861 137.601 83.403 143.46 83.403 143.46 90.188 153.022 90.188 153.022 83.711 159.808 83.711 159.808 81.861 161.35 81.861 161.35 83.866 167.364 83.866 167.364 90.497 176 90.497 176 128.896 193.644 128.896 193.644 111.933 200.584 108.694 200.584 102.988 203.668 102.988 203.668 106.689 211.533 102.988 228.959 111.47 228.959 128.125 235.128 128.125 249.47 128.125 268.255 128.125 424.708 129.251 424.708 89.584 443.262 78.918 461.933 89.251 461.829 97.918 461.829 91.918 476.496 77.251 499.829 77.251 499.829 69.251 508.496 69.251 508.496 77.918 516.496 77.918 527.496 92.251 532.496 92.251 547.329 77.418 571.496 77.418 580.162 71.251 587.829 77.251 595.162 76.918 613.829 91.918 613.829 81.584 621.829 75.918 621.829 65.918 618.496 65.918 618.496 62.251 628.496 62.251 628.496 65.251 625.496 65.251 625.496 72.584 638.496 62.251 662.496 81.584 662.496 92.251 668.829 92.251 668.829 85.918 690.405 85.918 690.405 93.584 697.071 93.584 697.071 129.251 783.162 129.251" transform="translate(0 -605) translate(-2 120) translate(0 486)"/>
                    <g opacity=".7" transform="translate(0 -605) translate(-2 120) translate(0 486) matrix(-1 0 0 1 403 82)">
                        <path stroke="#FFF" stroke-opacity=".9" stroke-width="2" d="M9 41c-1.82.017-3.82.017-6 0-3.27-.026-2.803-13.326.062-16.553 2.864-3.228 10.047-3.121 15.197-5.594 2.275-5.158 1.937-11.269 3.654-14.587C23.384 1.422 30.74 0 43.983 0H138c5.523 0 10 4.477 10 10v29c0 1.105-.895 2-2 2h-19.988"/>
                        <circle cx="100.5" cy="36.5" r="7.5" stroke="#FFF" stroke-opacity=".9" stroke-width="2"/>
                        <circle cx="16.5" cy="36.5" r="7.5" stroke="#FFF" stroke-opacity=".9" stroke-width="2"/>
                        <circle cx="119.5" cy="36.5" r="7.5" stroke="#FFF" stroke-opacity=".9" stroke-width="2"/>
                        <g>
                            <path stroke="#FFF" stroke-width="2" d="M1 1H12V36H1z" transform="translate(34 5)"/>
                            <path fill="#FFF" d="M6 2H7V35H6z" transform="translate(34 5)"/>
                            <path fill="#FFF" d="M5.5 13H6.5V23H5.5z" transform="translate(34 5) rotate(90 6 18)"/>
                        </g>
                        <path stroke="#FFF" stroke-width="2" d="M131 6v10h2c3.866 0 7-3.134 7-7V6h-9zM115 6H127V16H115zM99 6H111V16H99zM83 6H95V16H83zM67 6H79V16H67zM51 6H63V16H51zM31 17V6.05c-1.499-.067-2.906-.067-4.222 0-1.614 1.824-1.281 3.202-2.03 7.065C24.25 15.69 24 16.985 24 17h7z" opacity=".715"/>
                        <path stroke="#FFF" stroke-width="2" d="M113.198 41H106.5M93.795 41.062L23.045 41"/>
                    </g>
                    <path fill="#FFF" d="M764.01 124.291c-.014-3.401-2.786-6.165-6.191-6.165s-6.176 2.764-6.19 6.165h-19.816c-.015-3.401-2.786-6.165-6.191-6.165s-6.176 2.764-6.191 6.165h-1.264c-1.219 0-2.843-1.102-3.69-1.782v-5.649h3.715c.684 0 1.238-.554 1.238-1.238v-2.477h35.811c.035.003.069.005.104.005 6.627 0 10.385 0 11.993 1.234h-2.105c-.684 0-1.238.554-1.238 1.238 0 .684.554 1.238 1.238 1.238h3.358c.333 1.678.37 4.111.373 7.431h-4.954zm-6.191 3.742c-2.048 0-3.715-1.666-3.715-3.716 0-2.047 1.667-3.714 3.715-3.714 2.049 0 3.715 1.667 3.715 3.714 0 2.05-1.666 3.716-3.715 3.716zm-32.197 0c-2.049 0-3.715-1.666-3.715-3.716 0-2.047 1.666-3.714 3.715-3.714 2.048 0 3.715 1.667 3.715 3.714 0 2.05-1.667 3.716-3.715 3.716zm-9.394-14.888h.725v1.239h-1.964l1.239-1.239zm9.167-4.675c2.521-1.962 5.502-3.207 8.895-3.722v5.921h-11.223c.573-.66 1.342-1.432 2.328-2.199zm25.207.001c.983.767 1.749 1.538 2.32 2.198h-16.155v-6.162c.408-.02.82-.03 1.239-.03 4.962 0 9.201 1.343 12.596 3.994zm18.581 4.231c-2.146-1.967-5.864-2.026-13.145-2.028-.574-.871-1.791-2.477-3.802-4.07-2.652-2.1-7.274-4.604-14.23-4.604s-11.585 2.503-14.243 4.602c-2.017 1.592-3.236 3.197-3.814 4.067h-1.455c-.097-.024-.508-.024-.604 0h-2.175c-.329 0-.643.131-.875.363l-2.477 2.476c-.233.232-.363.548-.363.876v8.696c0 .346.144.676.397.909.307.285 3.082 2.78 5.771 2.78h1.768c.95 2.198 3.141 3.742 5.686 3.742 2.544 0 4.735-1.544 5.686-3.742l20.826-.002c.95 2.2 3.141 3.744 5.685 3.744 2.545 0 4.735-1.544 5.686-3.744h6.698c.684 0 1.238-.554 1.238-1.238 0-7.162 0-10.758-2.258-12.827z" opacity=".6" transform="translate(0 -605) translate(-2 120) translate(0 486)"/>
                    <path stroke="#FFF" d="M831.773 110.956L819.626 110.956 819.626 103.179 800.326 106.636 800.326 110.668 780.162 110.668 780.162 114.701 783.043 114.701 783.043 129.68 831.773 129.394 831.773 91.061 851.644 74.727 861.644 83.394 861.644 50.061 858.894 50.061 861.644 46.394 868.644 46.394 873.894 37.144 896.394 37.144 900.894 47.644 907.394 47.644 907.394 80.144 922.644 65.644 945.644 65.644 954.144 58.394 961.394 65.644 970.644 65.644 984.269 79.269 984.269 0.144 1020.644 0.144 1036.394 16.894 1036.394 73.394 1045.394 66.394 1045.394 56.394 1050.144 56.394 1050.144 62.394 1063.644 51.894 1091.394 73.894 1091.394 27.144 1114.894 27.144 1114.894 19.394 1126.894 19.394 1126.894 14.644 1131.894 14.644 1131.894 19.894 1137.394 19.894 1137.394 42.394 1172.394 42.394 1187.394 52.894 1187.394 101.894 1211.394 77.894 1236.144 102.644 1236.144 129.394 1295.085 129.394 1301.492 129.394" opacity=".784" transform="translate(0 -605) translate(-2 120) translate(0 486)"/>
                </g>
            </g>
        </g>
    </g>
</svg>
